<svg xmlns="http://www.w3.org/2000/svg" xmlns:cc="http://creativecommons.org/ns#" xmlns:dc="http://purl.org/dc/elements/1.1/" xmlns:rdf="http://www.w3.org/1999/02/22-rdf-syntax-ns#" version="1.1" viewBox="0 0 24 24" xml:space="preserve"><metadata><rdf:RDF><cc:Work rdf:about=""><dc:format>image/svg+xml</dc:format><dc:type rdf:resource="http://purl.org/dc/dcmitype/StillImage"/><dc:title/></cc:Work></rdf:RDF></metadata><g transform="matrix(1.3333 0 0 -1.3333 0 666.65)"><g transform="matrix(.1 0 0 .1 -140.06 104.61)"><path d="m1490.5 3953.8c-49.692 0-89.992-40.294-89.992-90.003 0-39.758 25.785-73.494 61.549-85.4 4.5028-0.8233 6.1438 1.9558 6.1438 4.3426 0 2.1382-0.077 7.7958-0.1215 15.304-25.034-5.4367-30.316 12.067-30.316 12.067-4.094 10.398-9.9948 13.166-9.9948 13.166-8.1715 5.5803 0.6189 5.4698 0.6189 5.4698 9.0333-0.6355 13.785-9.2766 13.785-9.2766 8.0278-13.752 21.067-9.7793 26.194-7.4754 0.8177 5.8124 3.1437 9.7793 5.7129 12.028-19.984 2.2764-40.996 9.9948-40.996 44.482 0 9.8289 3.5084 17.857 9.2654 24.15-0.9282 2.2764-4.0166 11.426 0.884 23.818 0 0 7.5528 2.42 24.747-9.2212 7.177 1.9945 14.879 2.9891 22.531 3.0277 7.6466-0.039 15.343-1.0332 22.531-3.0277 17.183 11.641 24.724 9.2212 24.724 9.2212 4.9117-12.392 1.8232-21.542 0.9006-23.818 5.7681-6.2929 9.2488-14.321 9.2488-24.15 0-34.576-21.045-42.184-41.09-44.41 3.2266-2.7791 6.1052-8.271 6.1052-16.669 0-12.028-0.1105-21.735-0.1105-24.686 0-2.4089 1.6243-5.2101 6.188-4.3316 35.736 11.928 61.499 45.637 61.499 85.389 0 49.709-40.3 90.003-90.008 90.003" fill-rule="evenodd"/></g></g></svg>